<svg width="93" height="32" viewBox="0 0 93 32" fill="none" xmlns="http://www.w3.org/2000/svg">
<path d="M90.9167 0.376984H90.8884H6.56193H6.53358C5.99503 0.376984 5.52734 0.610584 5.22971 0.960985C4.49274 1.64881 0.92127 4.90624 0.92127 4.91922C0.609475 5.19175 0.425232 5.58109 0.425232 6.00936V29.1877C0.425232 30.0313 1.17637 30.7191 2.09759 30.7191H86.4524C86.92 30.7191 87.3452 30.5374 87.6428 30.2649C87.657 30.2519 92.093 26.1899 92.093 26.1899C92.4048 25.9173 92.5891 25.528 92.5891 25.0997V1.90837C92.5891 1.06481 91.8379 0.376984 90.9167 0.376984Z" fill="white"/>
<path d="M90.9166 0H90.8883H6.56187H6.53353C5.89576 0 5.31469 0.272534 4.93203 0.700802C4.18089 1.38863 0.651935 4.63308 0.62359 4.64606C0.22676 5.00944 0 5.48962 0 6.00873V29.1871C0 30.2383 0.935386 31.0949 2.08336 31.0949H86.4381C87.005 31.0949 87.5294 30.8872 87.9262 30.5238L92.3764 26.4488C92.7732 26.0854 93 25.6052 93 25.0861V1.90774C93 0.856536 92.0646 0 90.9166 0ZM90.8883 0.765691C91.5827 0.765691 92.1355 1.2848 92.1355 1.90774V25.0861C92.1355 25.722 91.5686 26.2282 90.8883 26.2282H6.53353C5.83907 26.2282 5.28635 25.7091 5.28635 25.0861V1.90774C5.28635 1.66116 5.37138 1.42756 5.52728 1.23289C5.61231 1.15503 5.669 1.10311 5.669 1.10311C5.90994 0.882492 6.22173 0.752713 6.56187 0.752713H90.8883V0.765691ZM87.331 29.9788C87.0901 30.1994 86.7783 30.3292 86.4381 30.3292H2.08336C1.38891 30.3292 0.836178 29.81 0.836178 29.1871V6.00873C0.836178 5.69726 0.963731 5.41175 1.21884 5.19113C1.24718 5.16517 3.1463 3.42614 4.46434 2.21921V25.0861C4.46434 26.1373 5.39973 26.9939 6.5477 26.9939H90.619L87.331 29.9788Z" fill="black"/>
<path d="M15.2072 8.39713H25.2271V11.2003H18.892V12.589H24.9578V15.0158H18.892V18.5977H15.2213V8.39713H15.2072Z" fill="black"/>
<path d="M35.8423 18.5977L34.34 15.9632H31.548V18.5977H27.8773V8.39713H34.2549C37.3446 8.39713 39.0878 9.61704 39.0878 12.2905C39.0878 13.6661 38.4075 14.6395 37.4721 15.2364L39.4563 18.5847H35.8423V18.5977ZM31.548 13.4455H33.9998C34.9352 13.4455 35.4029 13.0302 35.4029 12.3164C35.4029 11.6026 34.9211 11.1874 33.9998 11.1874H31.548V13.4455Z" fill="black"/>
<path d="M41.3412 13.4969C41.3412 10.2265 43.8214 8.05923 47.648 8.05923C51.4745 8.05923 53.9547 10.2265 53.9547 13.4969C53.9547 16.7674 51.4745 18.9346 47.648 18.9346C43.8214 18.9346 41.3412 16.7674 41.3412 13.4969ZM50.3124 13.4969C50.3124 11.8877 49.1077 10.9533 47.648 10.9533C46.1882 10.9533 44.9835 11.8747 44.9835 13.4969C44.9835 15.1062 46.1882 16.0406 47.648 16.0406C49.1077 16.0406 50.3124 15.1062 50.3124 13.4969Z" fill="black"/>
<path d="M56.4776 8.39713H60.701L64.4 13.9127H64.726V8.39713H68.3116V18.5977H64.1874L60.3892 13.0821H60.0632V18.5977H56.4776V8.39713Z" fill="black"/>
<path d="M82.229 11.2003H78.2182V18.5977H74.5475V11.2003H70.5367V8.39713H82.229V11.2003Z" fill="black"/>
</svg>
